# xmcd
#
# Track frame offsets:
#	150
#	15201
#	32162
#	43861
#	67735
#	82171
#	93823
#	107405
#	118674
#	130976
#	144676
#	167049
#	180414
#	197715
#	208119
#	222694
#	236131
#	249695
#
# Disc length: 3539 seconds
#
# Revision: 0
# Processed by: cddbd v1.5.2PL0 Copyright (c) Steve Scherf et al.
# Submitted via: EasyCDDAExtractor 16.0.6.1
#
DISCID=020dd112
DTITLE=Γλυκερία - Εκατόν σαράντα μεγ. επιτυχίες-Γλυκερία 8
DYEAR=2010
DGENRE=Ποικίλη
TTITLE0=Γλυκερία - Άϊντε μάτια μου γλυκά [Χρ. Νικολόπουλος-Μαν. Ρασούλης]
TTITLE1=Γλυκερία - Όταν θα λάβεις αυτό το γράμμα [Γ. Ζαμπέτας-Γ. Μητσάκης]
TTITLE2=Γλυκερία - Όμορφη Θεσσαλονίκη [Βασ. Τσιτσάνης]
TTITLE3=Γλυκερία - Καίγομαι, καίγομαι [Στ. Ξαρχάκος-Ν. Γκάτσος]
TTITLE4=Γλυκερία - Τικ τικ τακ [παραδ., διασκ. Στέλιος Φωτιάδης
TTITLE5=Γλυκερία - Νά 'χα εκατό καρδιές [Νίκος Δαλέζιος]
TTITLE6=Γλυκερία-Ιακωβίδης Αγάθωνας - Με παράσυρε το ρέμα [Βασ. Τσιτσάνης]
TTITLE7=Γλυκερία - Σκερτσοπεταχτό [παραδ., διασκ. Στέλιος Φωτιάδης
TTITLE8=Γλυκερία - Φανταράκι [Γιώργος Κονιτόπουλος]
TTITLE9=Γλυκερία - Η Ξαβεριώτισσα [Δημ. Γκόγκος ή Μπαγιαντέρας]
TTITLE10=Γλυκερία - Σαββατόβραδο [Μ. Θεοδωράκης-Τάσος Λειβαδίτης]
TTITLE11=Γλυκερία - Δουλειά δεν έχει ο έρωτας [Θοδ. Παπαδόπουλος-Λ. Χαψιάδης]
TTITLE12=Γλυκερία - Ζωή το γλυκοχάραμα [Κώστας Καπλάνης-Γιώργος Πιάς]
TTITLE13=Γλυκερία - Φωνάζουν οι γειτόνοι [Μάριος Τόκας]
TTITLE14=Γλυκερία - Μη μού λες [Δημ. Παρασκευόπουλος]
TTITLE15=Γλυκερία-Γενίτσαρης Μιχ.-Μητσιάς Μ. - Ο έρωτας έχει βάσανα [Μιχ. Γενί
TTITLE15=τσαρης]
TTITLE16=Γλυκερία - Μπρατσέρα [παραδ. Δωδεκανήσου, Αιμιλία Χατζηδάκη]
TTITLE17=Γλυκερία - Ο χορός της Σαλώμης [Γιώργος Σταυριανός]
EXTD=
EXTT0=
EXTT1=
EXTT2=
EXTT3=
EXTT4=
EXTT5=
EXTT6=
EXTT7=
EXTT8=
EXTT9=
EXTT10=
EXTT11=
EXTT12=
EXTT13=
EXTT14=
EXTT15=
EXTT16=
EXTT17=
PLAYORDER=
